<svg width="0" height="0" class="hidden">
  <symbol version="1.1" id="ableton" xmlns="http://www.w3.org/2000/svg" xmlns:xlink="http://www.w3.org/1999/xlink" x="0px" y="0px" enable-background="new 0 0 188 45" xml:space="preserve" viewBox="0 0 188 45">
    <g>
      <path d="M40.6,43.3c-3.2-7-6.5-14.2-9.8-21.5c-3.3-7.3-6.7-14.5-9.8-21.5c-0.1-0.2-0.3-0.3-0.6-0.3c-0.2,0-0.5,0.1-0.6,0.3L0,43.3   c-0.1,0.2,0,0.4,0.1,0.6c0.1,0.1,0.3,0.2,0.5,0.2h5.5c0.2,0,0.4-0.1,0.6-0.4l4.5-10h18.1l0,0.1c0.6,1.4,1.3,2.9,1.9,4.3   c0.9,1.9,1.8,3.8,2.6,5.7c0.2,0.3,0.4,0.4,0.6,0.4H40c0.2,0,0.4-0.1,0.5-0.2C40.7,43.8,40.7,43.6,40.6,43.3z M13.8,28l6.5-14.7   l0.1,0.2L26.9,28H13.8z"></path>
      <path d="M58.5,17.1c-3.1,0-5.8,1.2-8,3.6l-0.2,0.2V0.5C50.3,0.3,50,0,49.7,0h-4.9c-0.3,0-0.6,0.3-0.6,0.5v43.1   c0,0.3,0.3,0.6,0.6,0.6h4.9c0.4,0,0.6-0.2,0.6-0.6v-2.3l0.2,0.2c2.2,2.2,5,3.5,7.8,3.5c8.7,0,12.6-7.3,12.6-14.1   C70.9,24.2,66.6,17.1,58.5,17.1z M57.3,39.6c-4.8,0-7.3-4.3-7.3-8.6c0-4.1,2.6-8.5,7.3-8.5c4.5,0,7.6,3.5,7.6,8.5   C64.9,35.3,62.6,39.6,57.3,39.6z"></path>
      <path d="M80.4,0h-4.9c-0.3,0-0.6,0.3-0.6,0.5v43.1c0,0.3,0.3,0.6,0.6,0.6h4.9c0.3,0,0.6-0.2,0.6-0.6V0.5C80.9,0.3,80.6,0,80.4,0z"></path>
      <path d="M98,17.1c-7.9,0-12.8,5.4-12.8,14.1c0,8.1,5.3,13.8,12.9,13.8c5.2,0,9.5-2.6,12-7.2l0-0.1c0-0.2-0.1-0.4-0.4-0.6l-4.1-2.3   c-0.3-0.2-0.5-0.1-0.8,0.1c-1.6,2.6-3.2,4.7-6.7,4.7c-3.9,0-6.6-2.6-6.9-6.4l0-0.1h18.6c0.3,0,0.6-0.2,0.6-0.5v-0.8   C110.5,25,107.2,17.1,98,17.1z M91.7,28l0-0.1c0.8-2.7,3.2-5.4,6.3-5.4c3.5,0,5.5,2.8,6.3,5.4l0,0.1H91.7z"></path>
      <path d="M129.9,17.9h-6V11c0-0.3-0.2-0.5-0.6-0.5h-4.9c-0.3,0-0.6,0.2-0.6,0.5v2.9c0,1.3,0,4-3.6,4h-1c-0.3,0-0.6,0.3-0.6,0.5V23   c0,0.4,0.5,0.5,0.6,0.5h4.6v11.1c0,7.1,2.7,10.5,8.4,10.5c1.7,0,3-0.2,3.9-0.6l0,0c0.2,0,0.4-0.3,0.4-0.5v-4.8   c0-0.3-0.3-0.5-0.6-0.5c-0.1,0-0.3,0.1-0.4,0.1c-0.7,0.3-1.4,0.6-2.4,0.6c-0.2,0-0.5,0-0.7,0c-2.5-0.6-2.5-3.8-2.5-6v-9.8h6   c0.1,0,0.6,0,0.6-0.5v-4.6C130.5,18.2,130.3,17.9,129.9,17.9z"></path>
      <path d="M147.1,17.1c-7.9,0-14.1,6.1-14.1,13.9c0,7.8,6.2,13.9,14.1,13.9c7.9,0,14.1-6.1,14.1-13.9C161.2,23.2,155,17.1,147.1,17.1   z M147.1,39.3c-4.4,0-8-3.7-8-8.2c0-4.5,3.6-8.2,8-8.2c4.4,0,8.1,3.7,8.1,8.2C155.2,35.6,151.6,39.3,147.1,39.3z"></path>
      <path d="M178,17.1c-2.6,0-5.2,1-6.8,2.7L171,20l-0.1-1.6c0-0.2-0.3-0.5-0.6-0.5h-4.9c-0.3,0-0.6,0.3-0.6,0.5v25.2   c0,0.3,0.3,0.6,0.6,0.6h4.9c0.4,0,0.6-0.2,0.6-0.6V32.1c0-4.2,0-9.5,5.6-9.5c4.6,0,5,3,5,6.7v14.4c0,0.3,0.3,0.6,0.6,0.6h4.9   c0.3,0,0.6-0.2,0.6-0.6v-15C187.5,20.6,184.6,17.1,178,17.1z"></path>
    </g>
  </symbol>
  <symbol xmlns="http://www.w3.org/2000/svg" viewBox="0 0 24 24" id="cross">
    <path d="m16.192 6.344-4.243 4.242-4.242-4.242-1.414 1.414L10.535 12l-4.242 4.242 1.414 1.414 4.242-4.242 4.243 4.242 1.414-1.414L13.364 12l4.242-4.242z"></path>
  </symbol>
  <symbol xmlns="http://www.w3.org/2000/svg" viewBox="0 0 40 40" id="facebook">
    <title>Facebook</title>
    <path d="M33.334 20a13.333 13.333 0 10-15.417 13.167v-9.312h-3.385V20h3.385v-2.933c0-3.342 1.991-5.187 5.036-5.187a20.5 20.5 0 012.985.26v3.277h-1.681a1.927 1.927 0 00-2.173 2.082v2.5h3.7l-.591 3.854h-3.109v9.314A13.337 13.337 0 0033.334 20z" fill="#fff"></path>
    <path d="M25.19 23.854L25.781 20h-3.7v-2.5a1.927 1.927 0 012.173-2.082h1.681v-3.283a20.5 20.5 0 00-2.985-.26c-3.046 0-5.036 1.846-5.036 5.188v2.938h-3.383v3.854h3.385v9.32a13.473 13.473 0 004.167 0v-9.317z"></path>
  </symbol>
  <symbol xmlns="http://www.w3.org/2000/svg" role="img" focusable="false" viewBox="0 0 40 40" id="insta">
    <title>Instagram</title>
    <g transform="translate(-336 -285)">
      <path d="M356 294.069c3.56 0 3.982.014 5.388.078a7.38 7.38 0 012.476.459 4.416 4.416 0 012.53 2.53 7.38 7.38 0 01.459 2.476c.064 1.406.078 1.828.078 5.388s-.014 3.982-.078 5.388a7.38 7.38 0 01-.459 2.476 4.416 4.416 0 01-2.53 2.53 7.38 7.38 0 01-2.476.459c-1.406.064-1.827.078-5.388.078s-3.982-.014-5.388-.078a7.38 7.38 0 01-2.476-.459 4.416 4.416 0 01-2.53-2.53 7.38 7.38 0 01-.459-2.476c-.064-1.406-.078-1.828-.078-5.388s.014-3.982.078-5.388a7.38 7.38 0 01.459-2.476 4.416 4.416 0 012.53-2.53 7.38 7.38 0 012.476-.459c1.406-.064 1.828-.078 5.388-.078m0-2.4c-3.621 0-4.075.015-5.5.08a9.787 9.787 0 00-3.237.62 6.818 6.818 0 00-3.9 3.9 9.787 9.787 0 00-.62 3.237c-.065 1.422-.08 1.876-.08 5.5s.015 4.075.08 5.5a9.787 9.787 0 00.62 3.237 6.818 6.818 0 003.9 3.9 9.787 9.787 0 003.237.62c1.422.065 1.876.08 5.5.08s4.075-.015 5.5-.08a9.787 9.787 0 003.237-.62 6.818 6.818 0 003.9-3.9 9.787 9.787 0 00.62-3.237c.065-1.422.08-1.876.08-5.5s-.015-4.075-.08-5.5a9.787 9.787 0 00-.62-3.237 6.818 6.818 0 00-3.9-3.9 9.787 9.787 0 00-3.237-.62c-1.422-.065-1.876-.08-5.5-.08z" fill="#fff"></path>
      <path d="M356 298.153a6.847 6.847 0 106.847 6.847 6.847 6.847 0 00-6.847-6.847zm0 11.291a4.444 4.444 0 114.444-4.444 4.444 4.444 0 01-4.444 4.444z" fill="#fff"></path>
      <circle cx="1.6" cy="1.6" r="1.6" transform="translate(361.517 296.283)" fill="#fff"></circle>
    </g>
  </symbol>
  <symbol role="img" xmlns="http://www.w3.org/2000/svg" viewBox="0 0 45 21" id="logo">
    <title id="logo">Ableton Homepage</title>
    <path d="M0 0h3v21H0zM6 0h3v21H6zM12 0h3v21h-3zM18 0h3v21h-3zM24 18h21v3H24zM24 12h21v3H24zM24 6h21v3H24zM24 0h21v3H24z"></path>
  </symbol>
  <symbol xmlns="http://www.w3.org/2000/svg" fill="#000000" viewBox="0 0 24 24" id="menu">
    <path d="M4 6h16v2H4zm0 5h16v2H4zm0 5h16v2H4z"></path>
  </symbol>
  <symbol xmlns="http://www.w3.org/2000/svg" role="img" focusable="false" viewBox="0 0 40 40" id="twitter">
    <title>Twitter</title>
    <path d="M15.362 30.159a14.5 14.5 0 0014.594-14.594c0-.222 0-.443-.015-.663a10.436 10.436 0 002.559-2.655 10.238 10.238 0 01-2.946.807 5.147 5.147 0 002.255-2.837 10.279 10.279 0 01-3.257 1.245 5.134 5.134 0 00-8.741 4.678A14.562 14.562 0 019.24 10.781a5.133 5.133 0 001.588 6.847 5.091 5.091 0 01-2.328-.642v.065a5.131 5.131 0 004.115 5.028 5.121 5.121 0 01-2.316.088 5.135 5.135 0 004.792 3.562 10.292 10.292 0 01-6.37 2.2 10.441 10.441 0 01-1.221-.074 14.521 14.521 0 007.862 2.3" fill="#fff"></path>
  </symbol>
  <symbol xmlns="http://www.w3.org/2000/svg" role="img" focusable="false" viewBox="0 0 40 40" id="youtube">
    <title>Youtube</title>
    <path d="M32.776 13.601a3.351 3.351 0 00-2.358-2.373C28.339 10.667 20 10.667 20 10.667s-8.339 0-10.418.561a3.351 3.351 0 00-2.358 2.373 35.146 35.146 0 00-.557 6.46 35.146 35.146 0 00.557 6.46 3.351 3.351 0 002.358 2.373c2.08.561 10.418.561 10.418.561s8.339 0 10.418-.561a3.351 3.351 0 002.358-2.373 35.146 35.146 0 00.557-6.46 35.146 35.146 0 00-.557-6.46z" fill="#fff"></path>
    <path d="M17.273 24.025l6.97-3.961-6.97-3.969z" fill="#ff001d"></path>
  </symbol>
</svg>